<svg width="136" height="77" viewBox="0 0 136 77" fill="none" xmlns="http://www.w3.org/2000/svg">
<path d="M39.52 14.32L34.576 31H31.48L27.976 18.376L24.256 31L21.184 31.024L16.456 14.32H19.36L22.816 27.904L26.56 14.32H29.632L33.112 27.832L36.592 14.32H39.52ZM53.8966 24.064C53.8966 24.56 53.8646 25.008 53.8006 25.408H43.6966C43.7766 26.464 44.1686 27.312 44.8726 27.952C45.5766 28.592 46.4406 28.912 47.4646 28.912C48.9366 28.912 49.9766 28.296 50.5846 27.064H53.5366C53.1366 28.28 52.4086 29.28 51.3526 30.064C50.3126 30.832 49.0166 31.216 47.4646 31.216C46.2006 31.216 45.0646 30.936 44.0566 30.376C43.0646 29.8 42.2806 29 41.7046 27.976C41.1446 26.936 40.8646 25.736 40.8646 24.376C40.8646 23.016 41.1366 21.824 41.6806 20.8C42.2406 19.76 43.0166 18.96 44.0086 18.4C45.0166 17.84 46.1686 17.56 47.4646 17.56C48.7126 17.56 49.8246 17.832 50.8006 18.376C51.7766 18.92 52.5366 19.688 53.0806 20.68C53.6246 21.656 53.8966 22.784 53.8966 24.064ZM51.0406 23.2C51.0246 22.192 50.6646 21.384 49.9606 20.776C49.2566 20.168 48.3846 19.864 47.3446 19.864C46.4006 19.864 45.5926 20.168 44.9206 20.776C44.2486 21.368 43.8486 22.176 43.7206 23.2H51.0406ZM59.3251 19.744C59.7891 19.104 60.4211 18.584 61.2211 18.184C62.0371 17.768 62.9411 17.56 63.9331 17.56C65.1011 17.56 66.1571 17.84 67.1011 18.4C68.0451 18.96 68.7891 19.76 69.3331 20.8C69.8771 21.824 70.1491 23 70.1491 24.328C70.1491 25.656 69.8771 26.848 69.3331 27.904C68.7891 28.944 68.0371 29.76 67.0771 30.352C66.1331 30.928 65.0851 31.216 63.9331 31.216C62.9091 31.216 61.9971 31.016 61.1971 30.616C60.4131 30.216 59.7891 29.704 59.3251 29.08V31H56.5891V13.24H59.3251V19.744ZM67.3651 24.328C67.3651 23.416 67.1731 22.632 66.7891 21.976C66.4211 21.304 65.9251 20.8 65.3011 20.464C64.6931 20.112 64.0371 19.936 63.3331 19.936C62.6451 19.936 61.9891 20.112 61.3651 20.464C60.7571 20.816 60.2611 21.328 59.8771 22C59.5091 22.672 59.3251 23.464 59.3251 24.376C59.3251 25.288 59.5091 26.088 59.8771 26.776C60.2611 27.448 60.7571 27.96 61.3651 28.312C61.9891 28.664 62.6451 28.84 63.3331 28.84C64.0371 28.84 64.6931 28.664 65.3011 28.312C65.9251 27.944 66.4211 27.416 66.7891 26.728C67.1731 26.04 67.3651 25.24 67.3651 24.328ZM86.1747 14.32V31H83.4387V23.704H75.5907V31H72.8547V14.32H75.5907V21.472H83.4387V14.32H86.1747ZM101.897 24.064C101.897 24.56 101.865 25.008 101.801 25.408H91.6966C91.7766 26.464 92.1686 27.312 92.8726 27.952C93.5766 28.592 94.4406 28.912 95.4646 28.912C96.9366 28.912 97.9766 28.296 98.5846 27.064H101.537C101.137 28.28 100.409 29.28 99.3526 30.064C98.3126 30.832 97.0166 31.216 95.4646 31.216C94.2006 31.216 93.0646 30.936 92.0566 30.376C91.0646 29.8 90.2806 29 89.7046 27.976C89.1446 26.936 88.8646 25.736 88.8646 24.376C88.8646 23.016 89.1366 21.824 89.6806 20.8C90.2406 19.76 91.0166 18.96 92.0086 18.4C93.0166 17.84 94.1686 17.56 95.4646 17.56C96.7126 17.56 97.8246 17.832 98.8006 18.376C99.7766 18.92 100.537 19.688 101.081 20.68C101.625 21.656 101.897 22.784 101.897 24.064ZM99.0406 23.2C99.0246 22.192 98.6646 21.384 97.9606 20.776C97.2566 20.168 96.3846 19.864 95.3446 19.864C94.4006 19.864 93.5926 20.168 92.9206 20.776C92.2486 21.368 91.8486 22.176 91.7206 23.2H99.0406ZM103.677 24.328C103.677 23 103.949 21.824 104.493 20.8C105.053 19.776 105.805 18.984 106.749 18.424C107.709 17.848 108.765 17.56 109.917 17.56C110.957 17.56 111.861 17.768 112.629 18.184C113.413 18.584 114.037 19.088 114.501 19.696V17.776H117.261V31H114.501V29.032C114.037 29.656 113.405 30.176 112.605 30.592C111.805 31.008 110.893 31.216 109.869 31.216C108.733 31.216 107.693 30.928 106.749 30.352C105.805 29.76 105.053 28.944 104.493 27.904C103.949 26.848 103.677 25.656 103.677 24.328ZM114.501 24.376C114.501 23.464 114.309 22.672 113.925 22C113.557 21.328 113.069 20.816 112.461 20.464C111.853 20.112 111.197 19.936 110.493 19.936C109.789 19.936 109.133 20.112 108.525 20.464C107.917 20.8 107.421 21.304 107.037 21.976C106.669 22.632 106.485 23.416 106.485 24.328C106.485 25.24 106.669 26.04 107.037 26.728C107.421 27.416 107.917 27.944 108.525 28.312C109.149 28.664 109.805 28.84 110.493 28.84C111.197 28.84 111.853 28.664 112.461 28.312C113.069 27.96 113.557 27.448 113.925 26.776C114.309 26.088 114.501 25.288 114.501 24.376ZM119.943 24.328C119.943 23 120.215 21.824 120.759 20.8C121.319 19.776 122.071 18.984 123.015 18.424C123.975 17.848 125.039 17.56 126.207 17.56C127.071 17.56 127.919 17.752 128.751 18.136C129.599 18.504 130.271 19 130.767 19.624V13.24H133.527V31H130.767V29.008C130.319 29.648 129.695 30.176 128.895 30.592C128.111 31.008 127.207 31.216 126.183 31.216C125.031 31.216 123.975 30.928 123.015 30.352C122.071 29.76 121.319 28.944 120.759 27.904C120.215 26.848 119.943 25.656 119.943 24.328ZM130.767 24.376C130.767 23.464 130.575 22.672 130.191 22C129.823 21.328 129.335 20.816 128.727 20.464C128.119 20.112 127.463 19.936 126.759 19.936C126.055 19.936 125.399 20.112 124.791 20.464C124.183 20.8 123.687 21.304 123.303 21.976C122.935 22.632 122.751 23.416 122.751 24.328C122.751 25.24 122.935 26.04 123.303 26.728C123.687 27.416 124.183 27.944 124.791 28.312C125.415 28.664 126.071 28.84 126.759 28.84C127.463 28.84 128.119 28.664 128.727 28.312C129.335 27.96 129.823 27.448 130.191 26.776C130.575 26.088 130.767 25.288 130.767 24.376Z" fill="#FF8828"/>
<path fill-rule="evenodd" clip-rule="evenodd" d="M3 35V3H28V7H31V1C31 0.447715 30.5523 0 30 0H1C0.447715 0 0 0.447716 0 1V37C0 37.5523 0.447716 38 1 38H30C30.5523 38 31 37.5523 31 37V31H28V35H3Z" fill="#FF8828"/>
</svg>
