<svg width="106" height="105" viewBox="0 0 106 105" fill="none" xmlns="http://www.w3.org/2000/svg">
<path d="M105 52.5C105 81.4949 81.4949 105 52.5 105C23.5051 105 0 81.4949 0 52.5C0 23.5051 23.5051 0 52.5 0C81.4949 0 105 23.5051 105 52.5ZM10.2447 52.5C10.2447 75.837 29.163 94.7553 52.5 94.7553C75.837 94.7553 94.7553 75.837 94.7553 52.5C94.7553 29.163 75.837 10.2447 52.5 10.2447C29.163 10.2447 10.2447 29.163 10.2447 52.5Z" fill="#DDDDDD"/>
<path d="M60.4683 104.392C50.3529 105.945 40.004 104.508 30.6944 100.257C21.3849 96.0067 13.5207 89.1278 8.06901 80.4667C2.61734 71.8056 -0.184047 61.7399 0.00937777 51.5077C0.202803 41.2755 3.38261 31.323 9.15771 22.8741C14.9328 14.4252 23.0514 7.84841 32.5149 3.95264C41.9784 0.0568646 52.3743 -0.988033 62.4238 0.946456C72.4734 2.88095 81.7384 7.71047 89.0794 14.841C96.4204 21.9716 101.517 31.0923 103.743 41.0813L93.7438 43.3095C91.9522 35.2697 87.8499 27.9288 81.9414 22.1897C76.0329 16.4506 68.5758 12.5634 60.4873 11.0064C52.3988 9.44945 44.0316 10.2905 36.4147 13.426C28.7979 16.5616 22.2636 21.855 17.6154 28.6552C12.9672 35.4554 10.4079 43.4658 10.2522 51.7014C10.0965 59.9369 12.3513 68.0384 16.7391 75.0094C21.127 81.9804 27.4566 87.517 34.9495 90.9381C42.4424 94.3593 50.7718 95.516 58.9134 94.2658L60.4683 104.392Z" fill="#FF8828"/>
<path d="M103.784 40.5778C105.456 47.7491 105.601 55.192 104.209 62.423C102.817 69.6541 99.92 76.5114 95.7052 82.5496C91.4904 88.5878 86.0525 93.6719 79.7447 97.4714C73.4369 101.271 66.4004 103.701 59.0922 104.604L57.8362 94.4366C63.7183 93.7099 69.3817 91.754 74.4586 88.6959C79.5355 85.6377 83.9123 81.5458 87.3046 76.6858C90.6969 71.8259 93.029 66.3067 94.1492 60.4867C95.2694 54.6667 95.1528 48.6762 93.8069 42.9042L103.784 40.5778Z" fill="#3E3E54"/>
<path d="M40.3431 38.214V39.026H37.6271V48H36.6471V39.026H33.9171V38.214H40.3431ZM41.4425 44.164C41.4425 43.38 41.5965 42.694 41.9045 42.106C42.2218 41.5087 42.6558 41.0513 43.2065 40.734C43.7665 40.4073 44.3965 40.244 45.0965 40.244C45.8245 40.244 46.4498 40.412 46.9725 40.748C47.5045 41.084 47.8872 41.5133 48.1205 42.036V40.356H49.1005V48H48.1205V46.306C47.8778 46.8287 47.4905 47.2627 46.9585 47.608C46.4358 47.944 45.8105 48.112 45.0825 48.112C44.3918 48.112 43.7665 47.9487 43.2065 47.622C42.6558 47.2953 42.2218 46.8333 41.9045 46.236C41.5965 45.6387 41.4425 44.948 41.4425 44.164ZM48.1205 44.178C48.1205 43.562 47.9945 43.0207 47.7425 42.554C47.4905 42.0873 47.1452 41.728 46.7065 41.476C46.2772 41.224 45.8012 41.098 45.2785 41.098C44.7372 41.098 44.2518 41.2193 43.8225 41.462C43.3932 41.7047 43.0525 42.0593 42.8005 42.526C42.5578 42.9833 42.4365 43.5293 42.4365 44.164C42.4365 44.7893 42.5578 45.34 42.8005 45.816C43.0525 46.2827 43.3932 46.642 43.8225 46.894C44.2518 47.1367 44.7372 47.258 45.2785 47.258C45.8012 47.258 46.2772 47.132 46.7065 46.88C47.1452 46.628 47.4905 46.2687 47.7425 45.802C47.9945 45.3353 48.1205 44.794 48.1205 44.178ZM55.3418 48L53.3678 44.92L51.4638 48H50.4278L52.8918 44.178L50.4558 40.356H51.5618L53.5078 43.394L55.3978 40.356H56.4198L53.9838 44.136L56.4478 48H55.3418ZM64.6932 43.786C64.6932 44.122 64.6839 44.3787 64.6652 44.556H58.3232C58.3512 45.1347 58.4912 45.6293 58.7432 46.04C58.9952 46.4507 59.3266 46.7633 59.7372 46.978C60.1479 47.1833 60.5959 47.286 61.0812 47.286C61.7159 47.286 62.2479 47.132 62.6772 46.824C63.1159 46.516 63.4052 46.1007 63.5452 45.578H64.5812C64.3946 46.3247 63.9932 46.936 63.3772 47.412C62.7706 47.8787 62.0052 48.112 61.0812 48.112C60.3626 48.112 59.7186 47.9533 59.1492 47.636C58.5799 47.3093 58.1319 46.852 57.8052 46.264C57.4879 45.6667 57.3292 44.9713 57.3292 44.178C57.3292 43.3847 57.4879 42.6893 57.8052 42.092C58.1226 41.4947 58.5659 41.0373 59.1352 40.72C59.7046 40.4027 60.3532 40.244 61.0812 40.244C61.8092 40.244 62.4439 40.4027 62.9852 40.72C63.5359 41.0373 63.9559 41.4667 64.2452 42.008C64.5439 42.54 64.6932 43.1327 64.6932 43.786ZM63.6992 43.758C63.7086 43.1887 63.5919 42.7033 63.3492 42.302C63.1159 41.9007 62.7939 41.5973 62.3832 41.392C61.9726 41.1867 61.5246 41.084 61.0392 41.084C60.3112 41.084 59.6906 41.3173 59.1772 41.784C58.6639 42.2507 58.3792 42.9087 58.3232 43.758H63.6992ZM69.1182 48.112C68.2409 48.112 67.5222 47.9113 66.9622 47.51C66.4115 47.0993 66.1035 46.544 66.0382 45.844H67.0462C67.0929 46.2733 67.2935 46.6233 67.6482 46.894C68.0122 47.1553 68.4975 47.286 69.1042 47.286C69.6362 47.286 70.0515 47.16 70.3502 46.908C70.6582 46.656 70.8122 46.3433 70.8122 45.97C70.8122 45.7087 70.7282 45.494 70.5602 45.326C70.3922 45.158 70.1775 45.0273 69.9162 44.934C69.6642 44.8313 69.3189 44.724 68.8802 44.612C68.3109 44.4627 67.8489 44.3133 67.4942 44.164C67.1395 44.0147 66.8362 43.7953 66.5842 43.506C66.3415 43.2073 66.2202 42.8107 66.2202 42.316C66.2202 41.9427 66.3322 41.5973 66.5562 41.28C66.7802 40.9627 67.0975 40.7107 67.5082 40.524C67.9189 40.3373 68.3855 40.244 68.9082 40.244C69.7295 40.244 70.3922 40.454 70.8962 40.874C71.4002 41.2847 71.6709 41.854 71.7082 42.582H70.7282C70.7002 42.134 70.5229 41.7747 70.1962 41.504C69.8789 41.224 69.4402 41.084 68.8802 41.084C68.3855 41.084 67.9842 41.2007 67.6762 41.434C67.3682 41.6673 67.2142 41.9567 67.2142 42.302C67.2142 42.6007 67.3029 42.848 67.4802 43.044C67.6669 43.2307 67.8955 43.38 68.1662 43.492C68.4369 43.5947 68.8009 43.7113 69.2582 43.842C69.8089 43.9913 70.2475 44.136 70.5742 44.276C70.9009 44.416 71.1809 44.6213 71.4142 44.892C71.6475 45.1627 71.7689 45.522 71.7782 45.97C71.7782 46.3807 71.6662 46.7493 71.4422 47.076C71.2182 47.3933 70.9055 47.6453 70.5042 47.832C70.1029 48.0187 69.6409 48.112 69.1182 48.112Z" fill="#B0B0B0"/>
<path d="M34.7283 64.228C34.7283 64.6947 34.6116 65.1333 34.3783 65.544C34.1543 65.9547 33.8183 66.3 33.3703 66.58C32.9316 66.86 32.409 67.028 31.8023 67.084V68.218H30.8923V67.084C30.015 67 29.3056 66.7247 28.7643 66.258C28.223 65.7913 27.9523 65.1753 27.9523 64.41H29.6603C29.6883 64.774 29.805 65.0773 30.0103 65.32C30.2156 65.5533 30.5096 65.7027 30.8923 65.768V62.688C30.267 62.5293 29.7583 62.3707 29.3663 62.212C28.9743 62.044 28.6383 61.7827 28.3583 61.428C28.0876 61.0733 27.9523 60.588 27.9523 59.972C27.9523 59.1973 28.223 58.558 28.7643 58.054C29.3056 57.5407 30.015 57.242 30.8923 57.158V56.024H31.8023V57.158C32.6236 57.2327 33.2816 57.494 33.7763 57.942C34.2803 58.3807 34.565 58.9873 34.6303 59.762H32.9223C32.8943 59.4727 32.7823 59.216 32.5863 58.992C32.3903 58.7587 32.129 58.6 31.8023 58.516V61.54C32.4276 61.6893 32.9363 61.848 33.3283 62.016C33.7203 62.1747 34.0516 62.4313 34.3223 62.786C34.593 63.1313 34.7283 63.612 34.7283 64.228ZM29.5763 59.888C29.5763 60.2707 29.6883 60.5693 29.9123 60.784C30.1456 60.9987 30.4723 61.1713 30.8923 61.302V58.474C30.491 58.5207 30.169 58.6653 29.9263 58.908C29.693 59.1507 29.5763 59.4773 29.5763 59.888ZM31.8023 65.768C32.213 65.7027 32.535 65.5393 32.7683 65.278C33.0016 65.0073 33.1183 64.6853 33.1183 64.312C33.1183 63.9387 33.0016 63.6493 32.7683 63.444C32.5443 63.2293 32.2223 63.0567 31.8023 62.926V65.768ZM46.1825 59.16C46.0798 58.7307 45.8932 58.4087 45.6225 58.194C45.3518 57.9793 44.9738 57.872 44.4885 57.872C43.7512 57.872 43.2005 58.1567 42.8365 58.726C42.4725 59.286 42.2812 60.2193 42.2625 61.526C42.5052 61.1153 42.8598 60.798 43.3265 60.574C43.7932 60.35 44.2972 60.238 44.8385 60.238C45.4545 60.238 45.9958 60.3733 46.4625 60.644C46.9385 60.9053 47.3072 61.288 47.5685 61.792C47.8392 62.296 47.9745 62.898 47.9745 63.598C47.9745 64.2513 47.8438 64.8347 47.5825 65.348C47.3305 65.8613 46.9525 66.2673 46.4485 66.566C45.9445 66.8553 45.3378 67 44.6285 67C43.6672 67 42.9112 66.79 42.3605 66.37C41.8192 65.9407 41.4365 65.3387 41.2125 64.564C40.9978 63.7893 40.8905 62.8233 40.8905 61.666C40.8905 58.25 42.0945 56.542 44.5025 56.542C45.4358 56.542 46.1685 56.794 46.7005 57.298C47.2418 57.802 47.5592 58.4227 47.6525 59.16H46.1825ZM44.4885 61.582C43.9192 61.582 43.4338 61.7547 43.0325 62.1C42.6405 62.436 42.4445 62.926 42.4445 63.57C42.4445 64.214 42.6265 64.7273 42.9905 65.11C43.3638 65.4833 43.8818 65.67 44.5445 65.67C45.1325 65.67 45.5945 65.488 45.9305 65.124C46.2758 64.76 46.4485 64.2747 46.4485 63.668C46.4485 63.0333 46.2805 62.5293 45.9445 62.156C45.6178 61.7733 45.1325 61.582 44.4885 61.582ZM51.6369 65.082L49.9429 68.946H48.9069L49.9009 65.082H51.6369ZM52.8214 61.764C52.8214 60.1493 53.0921 58.8893 53.6334 57.984C54.1841 57.0693 55.1268 56.612 56.4614 56.612C57.7961 56.612 58.7341 57.0693 59.2754 57.984C59.8261 58.8893 60.1014 60.1493 60.1014 61.764C60.1014 63.3973 59.8261 64.676 59.2754 65.6C58.7341 66.5147 57.7961 66.972 56.4614 66.972C55.1268 66.972 54.1841 66.5147 53.6334 65.6C53.0921 64.676 52.8214 63.3973 52.8214 61.764ZM58.5334 61.764C58.5334 61.008 58.4821 60.3687 58.3794 59.846C58.2861 59.3233 58.0901 58.8987 57.7914 58.572C57.4928 58.236 57.0494 58.068 56.4614 58.068C55.8734 58.068 55.4301 58.236 55.1314 58.572C54.8328 58.8987 54.6321 59.3233 54.5294 59.846C54.4361 60.3687 54.3894 61.008 54.3894 61.764C54.3894 62.548 54.4361 63.206 54.5294 63.738C54.6228 64.27 54.8188 64.6993 55.1174 65.026C55.4254 65.3527 55.8734 65.516 56.4614 65.516C57.0494 65.516 57.4928 65.3527 57.7914 65.026C58.0994 64.6993 58.3001 64.27 58.3934 63.738C58.4868 63.206 58.5334 62.548 58.5334 61.764ZM61.7902 61.764C61.7902 60.1493 62.0609 58.8893 62.6022 57.984C63.1529 57.0693 64.0955 56.612 65.4302 56.612C66.7649 56.612 67.7029 57.0693 68.2442 57.984C68.7949 58.8893 69.0702 60.1493 69.0702 61.764C69.0702 63.3973 68.7949 64.676 68.2442 65.6C67.7029 66.5147 66.7649 66.972 65.4302 66.972C64.0955 66.972 63.1529 66.5147 62.6022 65.6C62.0609 64.676 61.7902 63.3973 61.7902 61.764ZM67.5022 61.764C67.5022 61.008 67.4509 60.3687 67.3482 59.846C67.2549 59.3233 67.0589 58.8987 66.7602 58.572C66.4615 58.236 66.0182 58.068 65.4302 58.068C64.8422 58.068 64.3989 58.236 64.1002 58.572C63.8015 58.8987 63.6009 59.3233 63.4982 59.846C63.4049 60.3687 63.3582 61.008 63.3582 61.764C63.3582 62.548 63.4049 63.206 63.4982 63.738C63.5915 64.27 63.7875 64.6993 64.0862 65.026C64.3942 65.3527 64.8422 65.516 65.4302 65.516C66.0182 65.516 66.4615 65.3527 66.7602 65.026C67.0682 64.6993 67.2689 64.27 67.3622 63.738C67.4555 63.206 67.5022 62.548 67.5022 61.764ZM70.7589 61.764C70.7589 60.1493 71.0296 58.8893 71.5709 57.984C72.1216 57.0693 73.0643 56.612 74.3989 56.612C75.7336 56.612 76.6716 57.0693 77.2129 57.984C77.7636 58.8893 78.0389 60.1493 78.0389 61.764C78.0389 63.3973 77.7636 64.676 77.2129 65.6C76.6716 66.5147 75.7336 66.972 74.3989 66.972C73.0643 66.972 72.1216 66.5147 71.5709 65.6C71.0296 64.676 70.7589 63.3973 70.7589 61.764ZM76.4709 61.764C76.4709 61.008 76.4196 60.3687 76.3169 59.846C76.2236 59.3233 76.0276 58.8987 75.7289 58.572C75.4303 58.236 74.9869 58.068 74.3989 58.068C73.8109 58.068 73.3676 58.236 73.0689 58.572C72.7703 58.8987 72.5696 59.3233 72.4669 59.846C72.3736 60.3687 72.3269 61.008 72.3269 61.764C72.3269 62.548 72.3736 63.206 72.4669 63.738C72.5603 64.27 72.7563 64.6993 73.0549 65.026C73.3629 65.3527 73.8109 65.516 74.3989 65.516C74.9869 65.516 75.4303 65.3527 75.7289 65.026C76.0369 64.6993 76.2376 64.27 76.3309 63.738C76.4243 63.206 76.4709 62.548 76.4709 61.764Z" fill="#3E3E54"/>
</svg>
