<svg width="44" height="44" viewBox="0 0 44 44" fill="none" xmlns="http://www.w3.org/2000/svg">
<circle cx="22" cy="22" r="22" fill="#FFA155"/>
<path d="M28.0544 14.4761V11.845H29.2973C29.6081 11.845 29.8598 11.5933 29.8598 11.2825C29.8598 10.9717 29.6081 10.72 29.2973 10.72H14.3237C14.0129 10.72 13.7612 10.9717 13.7612 11.2825C13.7612 11.5933 14.0129 11.845 14.3237 11.845H15.5669V14.4761C15.5749 16.0897 16.2329 17.6321 17.3916 18.7549L20.9894 22.2333L17.5502 25.4698C16.3551 26.5983 15.6781 28.1698 15.6794 29.8137V32.095H14.3237C14.0129 32.095 13.7612 32.3467 13.7612 32.6575C13.7612 32.9683 14.0129 33.22 14.3237 33.22H29.2973C29.6081 33.22 29.8598 32.9683 29.8598 32.6575C29.8598 32.3467 29.6081 32.095 29.2973 32.095H28.1106V29.8555C28.1076 28.1828 27.4033 26.5879 26.1693 25.4589L22.6331 22.228L26.2303 18.7549C27.3888 17.6319 28.0464 16.0897 28.0544 14.4761ZM26.9856 29.8555V32.095H16.8044V29.8137C16.8037 28.4801 17.3533 27.2055 18.3231 26.29L21.8192 23.0062L25.4122 26.2889C26.4127 27.2051 26.9837 28.4989 26.9856 29.8555ZM21.8106 21.4567L18.1744 17.9471C17.2338 17.0362 16.6994 15.7851 16.6919 14.4761V11.845H26.9294V14.4761C26.9216 15.7851 26.3872 17.0362 25.4466 17.9471L21.8106 21.4567Z" fill="white" stroke="white"/>
</svg>
